<svg xmlns="http://www.w3.org/2000/svg" width="55.14mm" height="60.97mm" viewBox="-10 -10 186.3 172.8">
<!-- SVG created with Arrow, by QuiverAI (https://quiver.ai) -->
  <path d="m150.5 67.7c-6.9-0.7-9.9 4.5-13.7 5.7s-4.8-4.4-4.5-14.6c0.2-9.3 3.8-29.4 4.2-29.4-22.2-3.7-46-7.3-48.3 1.5-0.9 3.4 1.3 6.8 3 9.1 5.5 7.7 1.3 11.8-5.3 13a29.2 29.2 0 0 1-16.1-0.6c-6.2-2.1-9.6-6.3-4.5-12.6 2.3-3 4.5-7.6 1.8-10.6s-8.6-4.7-23.1-3.2a162.7 162.7 0 0 0-19.9 2.8l-4.1 0.6c0.4 2.2 4.2 21.9 3.8 34.4-0.2 6.3-2 10.9-6.9 8.2-3.1-1.5-5.9-4.5-10.6-4.3-7.4 0.3-11.2 8.8-11.2 18.8 0.2 9.1 3.5 18 10.6 18.6s8.7-4 13.8-5.4 5.1 5 0.6 43.9c7.6 1.3 21.5 3.5 31.8 3.8s15.9-0.1 16.3-6.4c0.4-3.8-3.1-7.5-4.2-9.4-6.8-11 6.3-13.6 13.9-13.7s16.8 2.5 16 9.6c-1.1 5-6.3 7.9-5.7 13.5s8.5 6.7 18.7 6.3a182.2 182.2 0 0 0 29.6-3.6c-4.2-24.6-5.7-43.6-0.6-43.7 4.2 0 6.8 4.5 12.9 5.2 7.2 0.4 11.4-6.1 12.3-15.5s-2.9-21.3-10.6-22z"/>
</svg>