<svg xmlns="http://www.w3.org/2000/svg" width="111.86mm" height="95.6mm" viewBox="-262 -134 378 323">
<!-- SVG created with Arrow, by QuiverAI (https://quiver.ai) -->
  <path fill-rule="evenodd" d="M-262-134h378v323h-378z M0.3 34.6c-5.5 1.4-8.5-3.9-13.2-5.4s-9.4 0.9-8.5 18.5a193.9 193.9 0 0 0 3.4 25.6c-9.7 1.5-23.5 3.2-31.4 3.2-13.6-0.4-11.2-4.3-7.5-9.2 2.4-3.4 5.3-9.6 1.7-13.7s-9.5-6.5-17.1-6.5-18.6 2.6-18.8 11.8c0.2 6.5 6.1 10 5.7 13.8-0.7 4-11.7 4.2-21.1 3.4s-19.1-2.4-20.2-2.8c4.2-24.3 5.9-42.8-2.4-44.5-5.9-0.6-9.3 5.5-14.6 5.6-8.8 0.3-11.2-19.9-5.2-27.8 2.4-3.4 6.1-5.3 11.8-0.8 9.6 6.3 13.4 1.7 13.9-7.3 1.1-9.1-2.4-32.5-3.5-34.3 1.8-0.4 15.7-2.9 28.1-3.2 9.7 0 14.9 1.3 13 5.6a16.6 16.6 0 0 1-2.2 3.6c-6.3 8.3-4.2 17.5 10.5 19 15.8 1.3 25.7-4.3 23.5-13-1.3-4.7-4.8-7-5.5-10.6-0.6-5.4 14.6-5.8 41.5-1.3-3 19.3-5.6 42.3 2.9 44.5s8.6-6 15.2-5.6 7.9 10.1 7 18.3c-0.6 5.8-3.1 10.7-7 13.1z"/>
</svg>