<svg xmlns="http://www.w3.org/2000/svg" viewBox="0 0 150 150">
<!-- SVG created with Arrow, by QuiverAI (https://quiver.ai) -->
  <style type="text/css">.cls-0 {fill:none;stroke:#020202;stroke-width:1.7769;stroke-linejoin:round;stroke-miterlimit:10;}
.cls-1 {fill:none;stroke:#0B0A0B;stroke-width:1.8844;stroke-linejoin:round;stroke-miterlimit:10;}
.cls-2 {fill:#0B0A0B;}</style>
  <path class="cls-0" d="m26 26.3-9.5 9.4 10 9.3-8 8.3c11.9 17.9 27.2 42.7 42.5 67.9 3.8 6.5 8 13.3 12.5 20.8l-0.7 3.4-13.4-56.2-8.2-35.7c-2.8-10.7-4.4-21.6-4.4-33.8 0-4.6 0.4-11.2 1-15l-21.8 21.6z"/>
  <path class="cls-1" d="m75 4.9-11.5 14.1 8.5 11-8.5 46.9 11.5 14.3 11.3-13.9-8.6-47.3 8.6-11-11.3-14.1z"/>
  <path class="cls-0" d="m124 26.3 9.6 9.4-10.2 9.3 8.6 9.1-54.9 91.2 21.6-89.1c2.9-12.2 4.5-20.4 4.3-36.1 0-4.6-0.5-11.6-0.9-15.4l21.9 21.6z"/>
  <path class="cls-1" d="m63.5 19"/>
  <polygon class="cls-2" points="45.3 82 45.2 82 45.3 82.3"/>
  <path class="cls-2" d="m65.4 64.5-2.6 12.8 2.2 2.5h1.8l-0.7-0.6 0.5-0.1-1.5-1.8v-1.1l1.5-10.4z"/>
  <path class="cls-2" d="m84.7 65.5 2.2 9.8v2.6l-1.3 1.4h-1.1l0.9-2-2-11.3z"/>
  <path class="cls-2" d="m54 69.4 1.1 4.1 1.4-0.5h0.1l-0.3-1.2 0.4-0.1-0.7-2.3z"/>
  <path class="cls-2" d="m55 73 4 17.8 1.7-0.9-4.2-17.4z"/>
  <path class="cls-2" d="m94.9 70.3-1 0.3-4.5 18.8 1.7 1 4.5-19.1z"/>
</svg>